<svg width="528" height="48" viewBox="0 0 528 48" fill="none" xmlns="http://www.w3.org/2000/svg">
<rect width="528" height="48" fill="#282C33"/>
<path d="M24.5 36C24.5 36 34 27.1156 34 20.375C34 17.8886 32.9991 15.504 31.2175 13.7459C29.4359 11.9877 27.0196 11 24.5 11C21.9804 11 19.5641 11.9877 17.7825 13.7459C16.0009 15.504 15 17.8886 15 20.375C15 27.1156 24.5 36 24.5 36ZM24.5 25.0625C23.2402 25.0625 22.032 24.5686 21.1412 23.6896C20.2504 22.8105 19.75 21.6182 19.75 20.375C19.75 19.1318 20.2504 17.9395 21.1412 17.0604C22.032 16.1814 23.2402 15.6875 24.5 15.6875C25.7598 15.6875 26.968 16.1814 27.8588 17.0604C28.7496 17.9395 29.25 19.1318 29.25 20.375C29.25 21.6182 28.7496 22.8105 27.8588 23.6896C26.968 24.5686 25.7598 25.0625 24.5 25.0625Z" fill="#ABB2BF"/>
<path d="M63.5 14C57.6988 14 53 18.5882 53 24.2529C53 28.7899 56.0056 32.6219 60.1794 33.9804C60.7044 34.0701 60.9012 33.7625 60.9012 33.4934C60.9012 33.2499 60.8881 32.4425 60.8881 31.5838C58.25 32.058 57.5675 30.9558 57.3575 30.3791C57.2394 30.0843 56.7275 29.1743 56.2812 28.9308C55.9137 28.7386 55.3888 28.2644 56.2681 28.2516C57.095 28.2388 57.6856 28.9949 57.8825 29.3025C58.8275 30.8533 60.3369 30.4175 60.9406 30.1484C61.0325 29.4819 61.3081 29.0334 61.61 28.777C59.2737 28.5207 56.8325 27.6364 56.8325 23.7147C56.8325 22.5997 57.2394 21.6769 57.9088 20.9592C57.8038 20.7029 57.4362 19.6519 58.0138 18.2422C58.0138 18.2422 58.8931 17.973 60.9012 19.2931C61.7413 19.0624 62.6338 18.947 63.5263 18.947C64.4188 18.947 65.3113 19.0624 66.1513 19.2931C68.1594 17.9602 69.0387 18.2422 69.0387 18.2422C69.6163 19.6519 69.2488 20.7029 69.1438 20.9592C69.8131 21.6769 70.22 22.5868 70.22 23.7147C70.22 27.6492 67.7656 28.5207 65.4294 28.777C65.81 29.0975 66.1381 29.7126 66.1381 30.6738C66.1381 32.0452 66.125 33.1474 66.125 33.4934C66.125 33.7625 66.3219 34.0829 66.8469 33.9804C68.9314 33.2935 70.7428 31.9854 72.026 30.2403C73.3092 28.4953 73.9996 26.4012 74 24.2529C74 18.5882 69.3013 14 63.5 14Z" fill="#ABB2BF"/>
<path d="M99.2249 34C107.905 34 112.653 26.6883 112.653 20.3587C112.653 20.1541 112.653 19.9466 112.644 19.742C113.568 19.0617 114.366 18.2194 115 17.2546C114.137 17.6417 113.221 17.8968 112.285 18.0116C113.271 17.4119 114.011 16.4683 114.365 15.3561C113.437 15.9146 112.423 16.3066 111.365 16.5151C110.653 15.7449 109.712 15.2347 108.687 15.0635C107.661 14.8923 106.609 15.0696 105.693 15.568C104.776 16.0663 104.047 16.858 103.619 17.8203C103.19 18.7825 103.085 19.8617 103.32 20.8907C101.444 20.795 99.6084 20.2995 97.9326 19.4362C96.2568 18.5728 94.7782 17.361 93.5928 15.8794C92.9909 16.9361 92.8073 18.1861 93.0791 19.3756C93.3508 20.565 94.0577 21.6047 95.0561 22.2835C94.308 22.2576 93.5762 22.0534 92.92 21.6872V21.753C92.9213 22.86 93.2985 23.9326 93.9879 24.7895C94.6773 25.6464 95.6365 26.2351 96.7035 26.4559C96.2985 26.5694 95.8801 26.6259 95.4601 26.624C95.1639 26.6249 94.8684 26.597 94.5774 26.5407C94.879 27.4937 95.4662 28.3269 96.2568 28.9236C97.0474 29.5203 98.0018 29.8507 98.9863 29.8685C97.3138 31.2039 95.2479 31.9282 93.1212 31.9247C92.7465 31.9263 92.3721 31.9044 92 31.859C94.1584 33.258 96.6651 34.0008 99.2249 34Z" fill="#ABB2BF"/>
<path d="M132 13.719C132 12.7695 132.789 12 133.762 12H154.237C155.211 12 156 12.7695 156 13.719V34.281C156 35.2305 155.211 36 154.237 36H133.762C132.789 36 132 35.2305 132 34.281V13.719ZM139.414 32.091V21.2535H135.813V32.091H139.414ZM137.614 19.773C138.87 19.773 139.651 18.942 139.651 17.901C139.629 16.8375 138.872 16.029 137.638 16.029C136.405 16.029 135.6 16.839 135.6 17.901C135.6 18.942 136.382 19.773 137.59 19.773H137.614ZM144.976 32.091V26.0385C144.976 25.7145 145 25.3905 145.096 25.1595C145.356 24.513 145.949 23.8425 146.944 23.8425C148.248 23.8425 148.768 24.8355 148.768 26.2935V32.091H152.37V25.875C152.37 22.545 150.594 20.997 148.224 20.997C146.313 20.997 145.456 22.047 144.976 22.7865V22.824H144.952C144.96 22.8115 144.968 22.799 144.976 22.7865V21.2535H141.376C141.421 22.2705 141.376 32.091 141.376 32.091H144.976Z" fill="#ABB2BF"/>
<path d="M192.164 15.6591C190.543 14.8783 188.832 14.321 187.075 14.0011C187.059 13.9983 187.043 14.0008 187.028 14.0081C187.014 14.0154 187.002 14.0273 186.994 14.0421C186.774 14.4521 186.53 14.9883 186.359 15.4082C184.465 15.1064 182.538 15.1064 180.644 15.4082C180.454 14.9405 180.239 14.4844 180 14.0421C179.992 14.0275 179.98 14.0157 179.966 14.0084C179.951 14.0011 179.935 13.9986 179.919 14.0011C178.161 14.3193 176.45 14.8768 174.83 15.6591C174.816 15.6646 174.804 15.675 174.797 15.6886C171.557 20.7706 170.667 25.7279 171.103 30.623C171.105 30.6459 171.119 30.6689 171.136 30.6836C173.023 32.1507 175.134 33.2708 177.378 33.9962C177.394 34.0014 177.411 34.0013 177.427 33.9957C177.443 33.99 177.456 33.9793 177.466 33.965C177.947 33.2763 178.375 32.5498 178.744 31.7856C178.752 31.7699 178.754 31.752 178.751 31.7345C178.749 31.7171 178.741 31.7011 178.728 31.6889C178.72 31.6809 178.711 31.6747 178.7 31.6708C178.027 31.3993 177.375 31.0731 176.75 30.6951C176.733 30.6847 176.72 30.6677 176.714 30.6476C176.708 30.6274 176.71 30.6057 176.719 30.5869C176.724 30.5747 176.732 30.564 176.742 30.5557C176.874 30.4524 177.005 30.3442 177.13 30.236C177.141 30.2266 177.154 30.2206 177.168 30.2186C177.182 30.2166 177.197 30.2186 177.21 30.2245C181.302 32.1858 185.731 32.1858 189.774 30.2245C189.787 30.2183 189.802 30.2162 189.816 30.2182C189.831 30.2202 189.845 30.2264 189.856 30.236C189.981 30.3442 190.113 30.4524 190.244 30.5557C190.254 30.5639 190.263 30.5747 190.269 30.5872C190.274 30.5996 190.277 30.6134 190.276 30.6272C190.276 30.641 190.272 30.6544 190.265 30.6663C190.258 30.6781 190.249 30.688 190.238 30.6951C189.614 31.0765 188.961 31.4024 188.286 31.6692C188.275 31.6733 188.265 31.6798 188.257 31.6883C188.249 31.6968 188.243 31.7071 188.239 31.7184C188.236 31.7294 188.234 31.741 188.235 31.7525C188.236 31.7641 188.239 31.7754 188.244 31.7856C188.619 32.5482 189.049 33.2763 189.52 33.965C189.53 33.9793 189.544 33.99 189.559 33.9957C189.575 34.0013 189.592 34.0014 189.608 33.9962C191.856 33.2731 193.97 32.1528 195.859 30.6836C195.869 30.6768 195.877 30.6677 195.882 30.6572C195.888 30.6467 195.891 30.635 195.892 30.623C196.414 24.9637 195.019 20.0474 192.195 15.6902C192.193 15.683 192.188 15.6765 192.183 15.6712C192.177 15.6658 192.171 15.6617 192.164 15.6591ZM179.355 27.6417C178.122 27.6417 177.108 26.4544 177.108 24.9982C177.108 23.5403 178.103 22.353 179.355 22.353C180.616 22.353 181.62 23.5502 181.602 24.9982C181.602 26.4544 180.606 27.6417 179.355 27.6417ZM187.661 27.6417C186.43 27.6417 185.414 26.4544 185.414 24.9982C185.414 23.5403 186.409 22.353 187.661 22.353C188.922 22.353 189.928 23.5502 189.908 24.9982C189.908 26.4544 188.922 27.6417 187.661 27.6417Z" fill="#ABB2BF"/>
<path d="M235 23.5C235 26.55 233.788 29.4751 231.632 31.6317C229.475 33.7884 226.55 35 223.5 35C220.45 35 217.525 33.7884 215.368 31.6317C213.212 29.4751 212 26.55 212 23.5C212 20.45 213.212 17.5249 215.368 15.3683C217.525 13.2116 220.45 12 223.5 12C226.55 12 229.475 13.2116 231.632 15.3683C233.788 17.5249 235 20.45 235 23.5ZM223.913 20.4899C222.794 20.9556 220.557 21.9187 217.205 23.3792C216.662 23.5949 216.376 23.8076 216.35 24.0146C216.307 24.3639 216.745 24.5019 217.342 24.6903L217.593 24.7693C218.18 24.9605 218.97 25.1833 219.38 25.1919C219.754 25.2006 220.169 25.0482 220.628 24.7319C223.76 22.6174 225.377 21.5493 225.478 21.5263C225.55 21.5091 225.65 21.4889 225.717 21.5493C225.784 21.6083 225.777 21.7218 225.77 21.752C225.727 21.9374 224.006 23.5359 223.116 24.3639C222.839 24.6227 222.642 24.8053 222.602 24.8469C222.513 24.9375 222.423 25.0267 222.331 25.1143C221.785 25.6404 221.377 26.0343 222.353 26.6783C222.823 26.9888 223.2 27.2432 223.575 27.4991C223.983 27.778 224.391 28.0554 224.92 28.4033C225.054 28.4896 225.183 28.583 225.308 28.6721C225.784 29.0114 226.214 29.3161 226.742 29.2673C227.049 29.2385 227.367 28.951 227.528 28.0885C227.909 26.0516 228.658 21.6399 228.83 19.8214C228.841 19.6703 228.835 19.5184 228.812 19.3686C228.798 19.2478 228.74 19.1364 228.648 19.0567C228.517 18.9664 228.361 18.9196 228.202 18.923C227.771 18.9302 227.105 19.1616 223.913 20.4899Z" fill="#ABB2BF"/>
<path d="M253.072 17.2029C253.217 16.5771 253.573 16.0183 254.082 15.6181C254.592 15.2179 255.224 15 255.875 15H273.125C273.776 15 274.408 15.2179 274.918 15.6181C275.427 16.0183 275.783 16.5771 275.928 17.2029L264.5 24.0865L253.072 17.2029ZM253 18.8207V28.8847L261.342 23.8442L253 18.8207ZM262.719 24.6758L253.275 30.3807C253.508 30.8657 253.876 31.2753 254.337 31.5619C254.797 31.8486 255.33 32.0005 255.875 32H273.125C273.669 32.0001 274.203 31.8479 274.663 31.561C275.123 31.274 275.491 30.8643 275.724 30.3793L266.28 24.6744L264.5 25.7468L262.719 24.6744V24.6758ZM267.658 23.8457L276 28.8847V18.8207L267.658 23.8442V23.8457Z" fill="#ABB2BF"/>
<path d="M304 24C304 23.1159 304.369 22.2681 305.025 21.643C305.682 21.0179 306.572 20.6667 307.5 20.6667C308.428 20.6667 309.318 21.0179 309.975 21.643C310.631 22.2681 311 23.1159 311 24C311 24.8841 310.631 25.7319 309.975 26.357C309.318 26.9821 308.428 27.3333 307.5 27.3333C306.572 27.3333 305.682 26.9821 305.025 26.357C304.369 25.7319 304 24.8841 304 24ZM297 30.6667C297 29.7826 297.369 28.9348 298.025 28.3096C298.682 27.6845 299.572 27.3333 300.5 27.3333H304V30.6667C304 31.5507 303.631 32.3986 302.975 33.0237C302.318 33.6488 301.428 34 300.5 34C299.572 34 298.682 33.6488 298.025 33.0237C297.369 32.3986 297 31.5507 297 30.6667ZM304 14V20.6667H307.5C308.428 20.6667 309.318 20.3155 309.975 19.6904C310.631 19.0652 311 18.2174 311 17.3333C311 16.4493 310.631 15.6014 309.975 14.9763C309.318 14.3512 308.428 14 307.5 14H304ZM297 17.3333C297 18.2174 297.369 19.0652 298.025 19.6904C298.682 20.3155 299.572 20.6667 300.5 20.6667H304V14H300.5C299.572 14 298.682 14.3512 298.025 14.9763C297.369 15.6014 297 16.4493 297 17.3333ZM297 24C297 24.8841 297.369 25.7319 298.025 26.357C298.682 26.9821 299.572 27.3333 300.5 27.3333H304V20.6667H300.5C299.572 20.6667 298.682 21.0179 298.025 21.643C297.369 22.2681 297 23.1159 297 24Z" fill="#ABB2BF"/>
<path fill-rule="evenodd" clip-rule="evenodd" d="M344.5 12C338.152 12 333 17.152 333 23.5C333 29.848 338.152 35 344.5 35C350.837 35 356 29.848 356 23.5C356 17.152 350.837 12 344.5 12ZM352.096 17.3015C353.511 19.0255 354.295 21.1817 354.317 23.4123C353.992 23.3505 350.749 22.6892 347.481 23.1004C347.407 22.9394 347.343 22.764 347.269 22.5901C347.069 22.1157 346.845 21.6298 346.62 21.1669C350.237 19.6964 351.884 17.5761 352.097 17.3001L352.096 17.3015ZM344.5 13.6962C346.994 13.6962 349.277 14.6306 351.012 16.1659C350.837 16.416 349.352 18.3983 345.86 19.7079C344.25 16.7524 342.467 14.3316 342.193 13.9579C342.949 13.7813 343.723 13.6935 344.5 13.6962ZM340.321 14.6191C341.637 16.4434 342.853 18.3379 343.964 20.2944C339.374 21.5162 335.32 21.4918 334.883 21.4918C335.199 20.005 335.854 18.6114 336.798 17.4195C337.741 16.2276 338.947 15.2697 340.321 14.6206V14.6191ZM334.672 23.5144V23.2125C335.096 23.2269 339.861 23.2887 344.763 21.8167C345.049 22.3644 345.311 22.9264 345.561 23.4871L345.173 23.5992C340.11 25.2336 337.416 29.6985 337.19 30.0737C335.569 28.2734 334.671 25.936 334.672 23.5129V23.5144ZM344.5 33.3282C342.317 33.3316 340.196 32.6027 338.477 31.2582C338.649 30.8959 340.646 27.0549 346.183 25.1215C346.209 25.1086 346.221 25.1086 346.247 25.0971C347.18 27.5068 347.881 30.0002 348.341 32.5433C347.128 33.0646 345.821 33.3318 344.5 33.3282ZM349.977 31.6449C349.876 31.0454 349.352 28.1776 348.068 24.6471C351.148 24.1613 353.842 24.9591 354.179 25.0712C353.969 26.3975 353.488 27.6662 352.764 28.7974C352.041 29.9287 351.091 30.8982 349.975 31.6449H349.977Z" fill="#ABB2BF"/>
<path d="M373 18.6667C373 17.9594 373.29 17.2811 373.805 16.781C374.321 16.281 375.021 16 375.75 16H392.25C392.979 16 393.679 16.281 394.195 16.781C394.71 17.2811 395 17.9594 395 18.6667V25.3333H373V18.6667ZM388.812 20C388.63 20 388.455 20.0702 388.326 20.1953C388.197 20.3203 388.125 20.4899 388.125 20.6667V22C388.125 22.1768 388.197 22.3464 388.326 22.4714C388.455 22.5964 388.63 22.6667 388.812 22.6667H391.562C391.745 22.6667 391.92 22.5964 392.049 22.4714C392.178 22.3464 392.25 22.1768 392.25 22V20.6667C392.25 20.4899 392.178 20.3203 392.049 20.1953C391.92 20.0702 391.745 20 391.562 20H388.812ZM373 28V29.3333C373 30.0406 373.29 30.7189 373.805 31.219C374.321 31.719 375.021 32 375.75 32H392.25C392.979 32 393.679 31.719 394.195 31.219C394.71 30.7189 395 30.0406 395 29.3333V28H373Z" fill="#ABB2BF"/>
<path d="M420.132 33.2308V35.5385C420.132 35.7932 420.338 36 420.592 36H422.43C422.552 36 422.669 35.9514 422.755 35.8648C422.841 35.7783 422.89 35.6609 422.89 35.5385V33.2308H423.809V35.5385C423.809 35.7932 424.015 36 424.268 36H426.107C426.229 36 426.345 35.9514 426.432 35.8648C426.518 35.7783 426.566 35.6609 426.566 35.5385V33.2308H426.721C430.382 33.2308 433 31.3237 433 28.0246C433 25.2517 431.149 23.736 428.982 23.52V23.3575C430.765 22.9108 432.075 21.5594 432.075 19.3145C432.075 16.4862 429.961 14.7692 426.735 14.7692H426.566V12.4615C426.566 12.3391 426.518 12.2217 426.432 12.1352C426.345 12.0486 426.229 12 426.107 12H424.268C424.146 12 424.03 12.0486 423.943 12.1352C423.857 12.2217 423.809 12.3391 423.809 12.4615V14.7692H422.756V12.4615C422.756 12.3391 422.707 12.2217 422.621 12.1352C422.535 12.0486 422.418 12 422.296 12H420.592C420.47 12 420.353 12.0486 420.267 12.1352C420.181 12.2217 420.132 12.3391 420.132 12.4615V14.7692L416.46 14.7895C416.338 14.7895 416.221 14.8382 416.135 14.9247C416.048 15.0113 416 15.1287 416 15.2511V17.0769C416 17.3298 416.202 17.5385 416.456 17.5385L417.844 17.5292C418.208 17.5317 418.556 17.6786 418.813 17.938C419.069 18.1974 419.213 18.5482 419.213 18.9138V29.0769C419.213 29.4441 419.068 29.7963 418.809 30.056C418.551 30.3157 418.2 30.4615 417.835 30.4615L416.46 30.4818C416.338 30.4818 416.221 30.5305 416.135 30.617C416.048 30.7036 416 30.821 416 30.9434V32.7895C416 33.0443 416.206 33.2511 416.46 33.2511L420.132 33.2308ZM422.756 17.5145H425.915C427.581 17.5145 428.559 18.4338 428.559 19.9366C428.559 21.5446 427.502 22.4511 425.108 22.4511H422.756V17.5145ZM422.756 24.9932H426.138C428.228 24.9932 429.366 26.064 429.366 27.8068C429.366 29.5662 428.215 30.4837 425.399 30.4837H422.756V24.9951V24.9932Z" fill="#ABB2BF"/>
<path d="M471.192 25.394L458.466 32.778C457.386 33.404 456 32.646 456 31.384V16.616C456 15.356 457.384 14.596 458.466 15.224L471.192 22.608C471.438 22.7482 471.642 22.951 471.784 23.1956C471.926 23.4403 472.001 23.7181 472.001 24.001C472.001 24.2839 471.926 24.5617 471.784 24.8064C471.642 25.051 471.438 25.2537 471.192 25.394Z" fill="#ABB2BF"/>
<path d="M498.375 14C498.541 14 498.7 14.0658 498.817 14.1831C498.934 14.3003 499 14.4592 499 14.625V15.25H509V14.625C509 14.4592 509.066 14.3003 509.183 14.1831C509.3 14.0658 509.459 14 509.625 14C509.791 14 509.95 14.0658 510.067 14.1831C510.184 14.3003 510.25 14.4592 510.25 14.625V15.25H511.5C512.163 15.25 512.799 15.5134 513.268 15.9822C513.737 16.4511 514 17.087 514 17.75V31.5C514 32.163 513.737 32.7989 513.268 33.2678C512.799 33.7366 512.163 34 511.5 34H496.5C495.837 34 495.201 33.7366 494.732 33.2678C494.263 32.7989 494 32.163 494 31.5V20.25H514V19H494V17.75C494 17.087 494.263 16.4511 494.732 15.9822C495.201 15.5134 495.837 15.25 496.5 15.25H497.75V14.625C497.75 14.4592 497.816 14.3003 497.933 14.1831C498.05 14.0658 498.209 14 498.375 14V14Z" fill="#ABB2BF"/>
</svg>
