<svg width="700" height="689" viewBox="0 0 700 689" fill="none" xmlns="http://www.w3.org/2000/svg">
<path d="M107.351 246.97C104.87 351.857 229.206 458.927 384.407 458.927C539.607 458.927 786.766 252.148 669.381 246.97C443.197 236.994 365.686 131.659 388.366 56.9897C428.983 -76.7376 112.235 40.4489 107.351 246.97Z" fill="#3F3D56"/>
<path d="M318.641 165.165L316.772 163.8L317.962 161.656L317.452 161.284L316.263 163.428L314.395 162.064L314.07 162.648L315.939 164.013L314.749 166.157L315.259 166.529L316.448 164.385L318.316 165.749L318.641 165.165Z" fill="#F9A826"/>
<path d="M457.589 320.421L455.721 319.056L456.91 316.912L456.4 316.541L455.211 318.685L453.343 317.32L453.018 317.904L454.887 319.269L453.698 321.413L454.208 321.786L455.396 319.642L457.265 321.005L457.589 320.421Z" fill="#F9A826"/>
<path d="M232.712 301.539L230.844 300.174L232.033 298.03L231.523 297.658L230.335 299.802L228.466 298.438L228.142 299.022L230.01 300.387L228.821 302.531L229.331 302.903L230.519 300.759L232.388 302.123L232.712 301.539Z" fill="#F9A826"/>
<path d="M400.913 402.246L399.044 400.881L400.234 398.737L399.723 398.365L398.535 400.509L396.667 399.145L396.342 399.729L398.211 401.094L397.021 403.238L397.531 403.61L398.72 401.466L400.588 402.83L400.913 402.246Z" fill="#F9A826"/>
<path d="M244.596 363.431L242.728 362.067L243.917 359.922L243.407 359.551L242.218 361.695L240.35 360.33L240.025 360.915L241.894 362.28L240.705 364.424L241.215 364.796L242.403 362.652L244.272 364.016L244.596 363.431Z" fill="#F9A826"/>
<path d="M621.219 312.029L619.35 310.664L620.54 308.52L620.03 308.149L618.841 310.293L616.973 308.928L616.648 309.512L618.517 310.877L617.328 313.021L617.838 313.394L619.026 311.249L620.894 312.613L621.219 312.029Z" fill="#F9A826"/>
<path d="M206.202 185.096L204.334 183.731L205.523 181.587L205.013 181.216L203.825 183.36L201.956 181.995L201.632 182.58L203.5 183.944L202.311 186.089L202.821 186.461L204.009 184.317L205.878 185.681L206.202 185.096Z" fill="#F9A826"/>
<path d="M362.519 208.677L359.903 206.768L361.568 203.766L360.855 203.245L359.19 206.247L356.575 204.336L356.12 205.156L358.737 207.065L357.072 210.067L357.785 210.589L359.45 207.586L362.065 209.497L362.519 208.677Z" fill="white"/>
<path d="M268.364 248.353C269.878 248.353 271.106 246.944 271.106 245.206C271.106 243.468 269.878 242.059 268.364 242.059C266.849 242.059 265.621 243.468 265.621 245.206C265.621 246.944 266.849 248.353 268.364 248.353Z" fill="#F9A826"/>
<path d="M161.41 248.353C162.925 248.353 164.152 246.944 164.152 245.206C164.152 243.468 162.925 242.059 161.41 242.059C159.895 242.059 158.668 243.468 158.668 245.206C158.668 246.944 159.895 248.353 161.41 248.353Z" fill="#F9A826"/>
<path d="M347.893 132.96C349.408 132.96 350.636 131.551 350.636 129.813C350.636 128.075 349.408 126.666 347.893 126.666C346.379 126.666 345.151 128.075 345.151 129.813C345.151 131.551 346.379 132.96 347.893 132.96Z" fill="#F9A826"/>
<path d="M322.297 324.933C323.812 324.933 325.04 323.524 325.04 321.786C325.04 320.047 323.812 318.638 322.297 318.638C320.783 318.638 319.555 320.047 319.555 321.786C319.555 323.524 320.783 324.933 322.297 324.933Z" fill="#F9A826"/>
<path d="M320.469 257.795C321.479 257.795 322.297 256.855 322.297 255.697C322.297 254.538 321.479 253.599 320.469 253.599C319.459 253.599 318.641 254.538 318.641 255.697C318.641 256.855 319.459 257.795 320.469 257.795Z" fill="#F9A826"/>
<path d="M507.866 350.109C508.876 350.109 509.695 349.17 509.695 348.011C509.695 346.853 508.876 345.913 507.866 345.913C506.857 345.913 506.038 346.853 506.038 348.011C506.038 349.17 506.857 350.109 507.866 350.109Z" fill="#FF6584"/>
<path d="M228.142 235.765C229.151 235.765 229.97 234.826 229.97 233.667C229.97 232.508 229.151 231.569 228.142 231.569C227.132 231.569 226.313 232.508 226.313 233.667C226.313 234.826 227.132 235.765 228.142 235.765Z" fill="#FF6584"/>
<path d="M342.408 65.822C343.418 65.822 344.237 64.8827 344.237 63.724C344.237 62.5653 343.418 61.6259 342.408 61.6259C341.399 61.6259 340.58 62.5653 340.58 63.724C340.58 64.8827 341.399 65.822 342.408 65.822Z" fill="#FF6584"/>
<path d="M267.449 163.382C268.459 163.382 269.278 162.443 269.278 161.284C269.278 160.125 268.459 159.186 267.449 159.186C266.44 159.186 265.621 160.125 265.621 161.284C265.621 162.443 266.44 163.382 267.449 163.382Z" fill="#F9A826"/>
<path d="M290.303 93.0968C291.312 93.0968 292.131 92.1575 292.131 90.9988C292.131 89.84 291.312 88.9007 290.303 88.9007C289.293 88.9007 288.474 89.84 288.474 90.9988C288.474 92.1575 289.293 93.0968 290.303 93.0968Z" fill="white"/>
<path d="M563.629 282.971C565.143 282.971 566.371 281.562 566.371 279.824C566.371 278.086 565.143 276.677 563.629 276.677C562.114 276.677 560.886 278.086 560.886 279.824C560.886 281.562 562.114 282.971 563.629 282.971Z" fill="#F9A826"/>
<path d="M381.716 294.511C383.231 294.511 384.458 293.102 384.458 291.364C384.458 289.626 383.231 288.216 381.716 288.216C380.201 288.216 378.974 289.626 378.974 291.364C378.974 293.102 380.201 294.511 381.716 294.511Z" fill="#F9A826"/>
<path d="M335.095 376.335C340.144 376.335 344.237 371.638 344.237 365.845C344.237 360.051 340.144 355.354 335.095 355.354C330.047 355.354 325.954 360.051 325.954 365.845C325.954 371.638 330.047 376.335 335.095 376.335Z" fill="#F9A826"/>
<path d="M445.705 254.648C447.22 254.648 448.448 253.239 448.448 251.5C448.448 249.762 447.22 248.353 445.705 248.353C444.191 248.353 442.963 249.762 442.963 251.5C442.963 253.239 444.191 254.648 445.705 254.648Z" fill="white"/>
<g clip-path="url(#clip0_4_539)">
<path d="M358.726 279.088C392.075 279.088 419.11 251.99 419.11 218.562C419.11 185.135 392.075 158.036 358.726 158.036C325.378 158.036 298.343 185.135 298.343 218.562C298.343 251.99 325.378 279.088 358.726 279.088Z" fill="#FFB8B8"/>
<path d="M313.658 248.825C313.658 248.825 325.034 334.79 307.532 344.439C290.03 354.088 411.671 354.965 411.671 354.965C411.671 354.965 384.542 280.404 396.794 257.597L313.658 248.825Z" fill="#FFB8B8"/>
<path d="M500.494 355.4L490.378 401.575L468.987 499.266L468.347 504.616L460.965 566.553L456.055 607.698L452.762 635.337C432.743 645.651 418.233 652.77 418.233 652.77C418.233 652.77 416.985 646.498 414.973 638.473C400.924 642.696 374.926 649.7 352.895 651.099C360.918 660.063 364.605 668.483 359.604 674.697C344.511 693.43 282.204 654.186 260.411 639.552C259.903 643.055 259.711 646.598 259.836 650.136L243.159 637.28L244.809 607.698L247.593 557.647L251.091 494.879C249.988 492.191 249.063 489.433 248.324 486.623C243.216 468.417 237.017 432.062 232.262 401.575C228.436 377.039 225.562 356.305 224.954 351.894C224.872 351.318 224.831 351.021 224.831 351.021L317.151 310.131C323.712 325.382 354.349 329.967 354.349 329.967C379.73 328.214 399.626 314.798 399.626 314.798L500.494 355.4Z" fill="#D0CDE1"/>
<path d="M425.237 635.23C425.237 635.23 421.329 636.572 414.973 638.473C400.923 642.696 374.926 649.7 352.895 651.099C333.927 652.317 317.898 649.387 314.967 636.984C313.711 631.65 315.492 627.263 319.376 623.658C330.971 612.884 361.254 609.024 385.273 607.698C392.055 607.328 398.329 607.155 403.551 607.089C412.419 606.974 418.233 607.155 418.233 607.155L418.373 607.698L425.237 635.23Z" fill="#A0616A"/>
<path d="M308.493 161.31L297.203 156.78C297.203 156.78 320.81 130.729 353.654 132.994L344.416 122.8C344.416 122.8 366.997 113.739 387.524 137.525C398.315 150.028 410.8 164.726 418.584 181.282H430.675L425.628 192.42L443.29 203.557L425.162 201.557C426.242 207.656 426.408 213.883 425.654 220.031C424.876 226.181 421.745 231.788 416.922 235.668C416.922 235.668 402.92 206.617 402.92 202.086V213.412C402.92 213.412 391.63 203.219 391.63 196.423L385.471 204.351L382.392 191.892L344.416 204.351L350.575 194.157L326.968 197.555L336.206 185.096C336.206 185.096 309.52 199.821 308.493 212.28C307.467 224.739 299.656 236.545 299.656 236.545C299.656 236.545 278.728 178.3 308.493 161.31Z" fill="#2F2E41"/>
<path d="M566.128 567.68C559.977 574.364 544.737 584.43 526.262 595.328C519.389 599.377 512.072 603.55 504.608 607.698C486.798 617.6 468.15 627.411 452.762 635.337C432.742 645.651 418.233 652.77 418.233 652.77C418.233 652.77 416.985 646.498 414.973 638.473C412.28 627.732 408.223 613.847 403.995 607.698C403.847 607.484 403.699 607.287 403.551 607.089C402.319 605.468 401.08 604.521 399.856 604.521L460.965 566.553L487.373 550.141L468.347 504.616L444.485 447.511L458.887 401.575L473.364 355.4H500.494C500.494 355.4 509.478 375.055 520.965 402.464C522.681 406.563 524.455 410.834 526.262 415.246C549.894 472.862 579.356 553.318 566.128 567.68Z" fill="#D0CDE1"/>
<path d="M359.604 674.697C344.511 693.43 282.204 654.186 260.411 639.552C255.664 636.366 252.84 634.35 252.84 634.35L272.777 607.698L279.092 599.262C279.092 599.262 284.741 602.266 293.092 607.155C293.396 607.336 293.7 607.517 294.012 607.698C301.213 611.937 310.254 617.477 319.376 623.658C331.964 632.193 344.692 641.93 352.895 651.099C360.918 660.063 364.605 668.483 359.604 674.697Z" fill="#A0616A"/>
<path d="M293.092 607.155C290.863 607.147 288.638 607.328 286.441 607.698C267.563 610.95 261.995 628.078 260.411 639.552C259.903 643.056 259.711 646.598 259.836 650.136L243.159 637.28L237.082 632.597C222.458 627.485 209.426 618.407 198.127 607.698C188.326 598.245 179.533 587.793 171.892 576.512C164.282 565.394 157.497 553.729 151.594 541.613C149.946 538.232 149.061 534.53 149 530.768C148.939 527.005 149.704 523.276 151.241 519.843L171.892 473.709L202.077 406.283C202.299 404.678 202.542 403.109 202.808 401.575C208.794 367.17 224.831 351.894 224.831 351.894H237.082L245.277 401.575L255.459 463.297L248.323 486.624L231.835 540.494L247.593 557.647L293.092 607.155Z" fill="#D0CDE1"/>
<path d="M306.958 463.347L317.431 475.595C321.323 474.851 325.386 473.977 329.571 472.996L326.563 463.347L333.918 471.948C378.258 461.017 433.216 439.765 433.216 439.765C433.216 439.765 373.883 444.126 329.582 434.424C309.981 430.132 289.813 439.871 281.77 458.295C277.095 469.004 277.829 478.282 294.41 478.282C300.013 478.186 305.6 477.659 311.123 476.706L306.958 463.347Z" fill="#F9A826"/>
<path d="M545.723 664.655V669.652C545.725 671.023 545.472 672.382 544.975 673.66C544.755 674.229 544.488 674.78 544.179 675.306C543.2 676.953 541.812 678.316 540.149 679.263C538.486 680.209 536.607 680.706 534.695 680.706H168.016C166.104 680.706 164.225 680.209 162.562 679.263C160.9 678.316 159.511 676.953 158.532 675.306C158.223 674.78 157.956 674.229 157.736 673.66C157.239 672.382 156.986 671.023 156.989 669.652V664.655C156.988 663.204 157.273 661.766 157.827 660.425C158.381 659.084 159.194 657.865 160.218 656.838C161.242 655.812 162.458 654.998 163.796 654.442C165.134 653.887 166.568 653.601 168.016 653.602H189.153V651.272C189.152 651.212 189.164 651.152 189.187 651.096C189.21 651.04 189.244 650.989 189.287 650.946C189.33 650.903 189.38 650.869 189.436 650.846C189.492 650.823 189.552 650.811 189.612 650.811H200.64C200.701 650.811 200.76 650.823 200.816 650.846C200.872 650.869 200.923 650.903 200.966 650.946C201.008 650.989 201.042 651.04 201.065 651.096C201.088 651.152 201.1 651.212 201.1 651.272V653.602H207.989V651.272C207.989 651.212 208.001 651.152 208.024 651.096C208.047 651.04 208.081 650.989 208.124 650.946C208.167 650.903 208.217 650.869 208.273 650.846C208.329 650.823 208.389 650.811 208.449 650.811H219.477C219.537 650.811 219.597 650.823 219.653 650.846C219.709 650.869 219.76 650.903 219.802 650.946C219.845 650.989 219.879 651.04 219.902 651.096C219.925 651.152 219.937 651.212 219.937 651.272V653.602H226.834V651.272C226.834 651.212 226.846 651.152 226.869 651.096C226.892 651.04 226.926 650.989 226.969 650.946C227.012 650.903 227.062 650.869 227.118 650.846C227.174 650.823 227.234 650.811 227.294 650.811H238.322C238.383 650.811 238.442 650.823 238.498 650.846C238.554 650.869 238.605 650.903 238.647 650.946C238.69 650.989 238.724 651.04 238.747 651.096C238.77 651.152 238.782 651.212 238.782 651.272V653.602H245.671V651.272C245.671 651.212 245.683 651.152 245.706 651.096C245.729 651.04 245.763 650.989 245.806 650.946C245.848 650.903 245.899 650.869 245.955 650.846C246.011 650.823 246.071 650.811 246.131 650.811H257.159C257.219 650.811 257.279 650.823 257.335 650.846C257.391 650.869 257.442 650.903 257.484 650.946C257.527 650.989 257.561 651.04 257.584 651.096C257.607 651.152 257.619 651.212 257.619 651.272V653.602H264.508V651.272C264.508 651.212 264.52 651.152 264.543 651.096C264.566 651.04 264.6 650.989 264.643 650.946C264.685 650.903 264.736 650.869 264.792 650.846C264.848 650.823 264.908 650.811 264.968 650.811H275.996C276.056 650.811 276.116 650.823 276.172 650.846C276.228 650.869 276.278 650.903 276.321 650.946C276.364 650.989 276.398 651.04 276.421 651.096C276.444 651.152 276.456 651.212 276.456 651.272V653.602H283.353V651.272C283.353 651.212 283.365 651.152 283.388 651.096C283.411 651.04 283.445 650.989 283.488 650.946C283.53 650.903 283.581 650.869 283.637 650.846C283.693 650.823 283.753 650.811 283.813 650.811H294.841C294.901 650.811 294.961 650.823 295.017 650.846C295.073 650.869 295.124 650.903 295.166 650.946C295.209 650.989 295.243 651.04 295.266 651.096C295.289 651.152 295.301 651.212 295.301 651.272V653.602H302.19V651.272C302.19 651.212 302.202 651.152 302.225 651.096C302.248 651.04 302.282 650.989 302.325 650.946C302.367 650.903 302.418 650.869 302.474 650.846C302.53 650.823 302.589 650.811 302.65 650.811H389.033C389.094 650.811 389.154 650.823 389.209 650.846C389.265 650.869 389.316 650.903 389.359 650.946C389.402 650.989 389.435 651.04 389.458 651.096C389.481 651.152 389.493 651.212 389.493 651.272V653.602H396.391V651.272C396.391 651.212 396.402 651.152 396.426 651.096C396.449 651.04 396.483 650.989 396.525 650.946C396.568 650.903 396.619 650.869 396.675 650.846C396.73 650.823 396.79 650.811 396.851 650.811H407.878C408 650.813 408.116 650.861 408.202 650.948C408.288 651.034 408.337 651.15 408.338 651.272V653.602H415.228V651.272C415.228 651.212 415.239 651.152 415.262 651.096C415.286 651.04 415.319 650.989 415.362 650.946C415.405 650.903 415.456 650.869 415.511 650.846C415.567 650.823 415.627 650.811 415.688 650.811H426.715C426.776 650.811 426.836 650.823 426.891 650.846C426.947 650.869 426.998 650.903 427.041 650.946C427.083 650.989 427.117 651.04 427.14 651.096C427.163 651.152 427.175 651.212 427.175 651.272V653.602H434.065V651.272C434.064 651.212 434.076 651.152 434.099 651.096C434.122 651.04 434.156 650.989 434.199 650.946C434.242 650.903 434.292 650.869 434.348 650.846C434.404 650.823 434.464 650.811 434.524 650.811H445.552C445.613 650.811 445.672 650.823 445.728 650.846C445.784 650.869 445.835 650.903 445.878 650.946C445.92 650.989 445.954 651.04 445.977 651.096C446 651.152 446.012 651.212 446.012 651.272V653.602H452.91V651.272C452.91 651.212 452.921 651.152 452.944 651.096C452.968 651.04 453.001 650.989 453.044 650.946C453.087 650.903 453.138 650.869 453.193 650.846C453.249 650.823 453.309 650.811 453.37 650.811H464.397C464.518 650.813 464.633 650.862 464.718 650.948C464.802 651.035 464.85 651.151 464.849 651.272V653.602H471.746V651.272C471.746 651.212 471.758 651.152 471.781 651.096C471.804 651.04 471.838 650.989 471.881 650.946C471.924 650.903 471.974 650.869 472.03 650.846C472.086 650.823 472.146 650.811 472.206 650.811H483.234C483.295 650.811 483.354 650.823 483.41 650.846C483.466 650.869 483.517 650.903 483.56 650.946C483.602 650.989 483.636 651.04 483.659 651.096C483.682 651.152 483.694 651.212 483.694 651.272V653.602H490.583V651.272C490.583 651.212 490.595 651.152 490.618 651.096C490.641 651.04 490.675 650.989 490.718 650.946C490.761 650.903 490.811 650.869 490.867 650.846C490.923 650.823 490.983 650.811 491.043 650.811H502.071C502.131 650.811 502.191 650.823 502.247 650.846C502.303 650.869 502.354 650.903 502.396 650.946C502.439 650.989 502.473 651.04 502.496 651.096C502.519 651.152 502.531 651.212 502.531 651.272V653.602H534.695C536.143 653.601 537.577 653.887 538.915 654.442C540.254 654.998 541.469 655.812 542.493 656.838C543.518 657.865 544.33 659.084 544.884 660.425C545.438 661.766 545.723 663.204 545.723 664.655Z" fill="#3F3D56"/>
<path d="M652.347 673.66H50.4544V675.306H652.347V673.66Z" fill="#3F3D56"/>
<path d="M516.198 454.252H379.526V451.429H317.553V454.252H180.318C177.866 454.252 175.514 455.229 173.781 456.966C172.047 458.704 171.073 461.061 171.073 463.519V651.108C171.073 653.566 172.047 655.923 173.78 657.661C175.514 659.399 177.866 660.375 180.318 660.375H516.198C518.65 660.375 521.001 659.399 522.735 657.661C524.469 655.923 525.443 653.566 525.443 651.108V463.519C525.443 462.302 525.204 461.097 524.739 459.973C524.275 458.848 523.594 457.827 522.735 456.966C521.877 456.106 520.858 455.423 519.736 454.958C518.614 454.492 517.412 454.252 516.198 454.252Z" fill="#3F3D56"/>
<path d="M348.527 540.321C359.864 540.321 369.055 531.109 369.055 519.744C369.055 508.38 359.864 499.167 348.527 499.167C337.189 499.167 327.998 508.38 327.998 519.744C327.998 531.109 337.189 540.321 348.527 540.321Z" stroke="#D0CDE1" stroke-width="2" stroke-miterlimit="10"/>
<path d="M341.958 547.729C353.295 547.729 362.486 538.516 362.486 527.152C362.486 515.788 353.295 506.575 341.958 506.575C330.62 506.575 321.429 515.788 321.429 527.152C321.429 538.516 330.62 547.729 341.958 547.729Z" fill="#D0CDE1"/>
<path d="M89.8244 665.344H66.8326V688.39H89.8244V665.344Z" fill="#D0CDE1"/>
<path d="M75.8683 647.237V675.221H103.787V647.237H75.8683ZM102.572 674.003H77.0754V648.455H102.572V674.003Z" fill="#3F3D56"/>
<path d="M621.921 665.344H598.929V688.39H621.921V665.344Z" fill="#D0CDE1"/>
<path d="M607.965 647.237V675.221H635.883V647.237H607.965ZM634.668 674.003H609.172V648.455H634.668V674.003Z" fill="#3F3D56"/>
<path d="M124.433 614.751C125.2 641.048 109.87 650.685 90.6328 651.248C90.1859 651.261 89.7411 651.27 89.2982 651.272C88.4061 651.279 87.5226 651.264 86.6478 651.228C69.2493 650.504 55.4773 641.246 54.7648 616.79C54.0274 591.481 85.3677 558.596 87.719 556.163L87.7232 556.161C87.8126 556.068 87.8583 556.022 87.8583 556.022C87.8583 556.022 123.667 588.455 124.433 614.751Z" fill="#D0CDE1"/>
<path d="M89.2477 647.263L101.468 629.047L89.2727 649.223L89.2982 651.272C88.406 651.279 87.5226 651.264 86.6478 651.228L87.2539 624.88L87.2373 624.676L87.2596 624.637L87.3177 622.147L73.9349 602.671L87.3019 620.284L87.3493 620.81L87.8071 600.903L76.248 580.711L87.84 597.406L87.719 556.163L87.7193 556.026L87.7232 556.161L88.4905 588.666L99.0253 575.462L88.525 591.466L88.7549 609.272L98.4491 591.894L88.7906 611.89L88.9186 621.792L103.016 597.584L88.9614 625.246L89.2477 647.263Z" fill="#3F3D56"/>
<path d="M656.53 614.751C657.296 641.048 641.967 650.685 622.729 651.248C622.282 651.261 621.837 651.27 621.394 651.272C620.502 651.279 619.619 651.264 618.744 651.228C601.345 650.504 587.574 641.246 586.861 616.79C586.124 591.481 617.464 558.596 619.815 556.163L619.819 556.161C619.909 556.068 619.954 556.022 619.954 556.022C619.954 556.022 655.763 588.455 656.53 614.751Z" fill="#D0CDE1"/>
<path d="M621.344 647.263L633.564 629.047L621.369 649.223L621.394 651.272C620.502 651.279 619.619 651.264 618.744 651.228L619.35 624.88L619.333 624.676L619.356 624.637L619.414 622.147L606.031 602.671L619.398 620.284L619.446 620.81L619.903 600.903L608.344 580.711L619.936 597.406L619.815 556.163L619.815 556.026L619.819 556.161L620.587 588.666L631.122 575.462L620.621 591.466L620.851 609.272L630.545 591.894L620.887 611.89L621.015 621.792L635.113 597.584L621.058 625.246L621.344 647.263Z" fill="#3F3D56"/>
</g>
<defs>
<clipPath id="clip0_4_539">
<rect width="655.782" height="567.285" fill="white" transform="translate(0.775452 121.106)"/>
</clipPath>
</defs>
</svg>
